<svg xmlns="http://www.w3.org/2000/svg" viewBox="0 0 40 40" width="40" height="40">
  <defs>
    <filter id="wobble" x="-6%" y="-6%" width="112%" height="112%">
      <feTurbulence type="fractalNoise" baseFrequency="0.022" numOctaves="2" seed="4" result="t"></feTurbulence>
      <feDisplacementMap in="SourceGraphic" in2="t" scale="1.4"></feDisplacementMap>
    </filter>
  </defs>
  <g fill="none" stroke="#141210" stroke-width="2.4" stroke-linecap="round" stroke-linejoin="round" filter="url(#wobble)">
    <path d="M5 34 L35 34"></path>
    <rect x="8" y="14" width="24" height="20" rx="2"></rect>
    <path d="M14 14 L14 9.5 C14 8.5 14.7 8 15.5 8 L24.5 8 C25.3 8 26 8.5 26 9.5 L26 14"></path>
    <path d="M14 20 L14.01 20 M20 20 L20.01 20 M26 20 L26.01 20 M14 26 L14.01 26 M26 26 L26.01 26" stroke-width="3"></path>
    <path d="M18 34 L18 28 L22 28 L22 34"></path>
  </g>
</svg>